<svg xmlns="http://www.w3.org/2000/svg" width="1440" height="1280" viewBox="0 0 1440 1280" fill="none">
  <defs>
    <style>
      .title { font: 700 28px 'Segoe UI', Arial, sans-serif; fill: #102A43; }
      .h2 { font: 600 18px 'Segoe UI', Arial, sans-serif; fill: #102A43; }
      .h2inv { font: 600 18px 'Segoe UI', Arial, sans-serif; fill: white; }
      .h3 { font: 600 15px 'Segoe UI', Arial, sans-serif; fill: #102A43; }
      .metric { font: 700 24px 'Segoe UI', Arial, sans-serif; fill: #102A43; }
      .body { font: 500 13px 'Segoe UI', Arial, sans-serif; fill: #102A43; }
      .small { font: 500 12px 'Segoe UI', Arial, sans-serif; fill: #486581; }
      .tiny { font: 500 11px 'Segoe UI', Arial, sans-serif; fill: #486581; }
      .inverse { font: 600 12px 'Segoe UI', Arial, sans-serif; fill: white; }
      .annoTitle { font: 700 14px 'Segoe UI', Arial, sans-serif; fill: #102A43; }
      .annoText { font: 500 12px 'Segoe UI', Arial, sans-serif; fill: #486581; }
    </style>
    <filter id="shadow" x="-20%" y="-20%" width="140%" height="160%">
      <feDropShadow dx="0" dy="3" stdDeviation="8" flood-color="#102A43" flood-opacity="0.08"/>
    </filter>
  </defs>
  <rect x="0" y="0" width="1440" height="1280" rx="0" fill="#F4F7FB"/>
  <rect x="24" y="24" width="248" height="1232" rx="24" fill="#10324A" filter="url(#shadow)"/>
  <text x="52" y="72" class="inverse" text-anchor="start">Org Admin Console</text>
  <rect x="48" y="92" width="200" height="36" rx="12" fill="rgba(255,255,255,0.1)"/>
  <text x="62" y="116" class="inverse" text-anchor="start">Enterprise HRMS</text>
  <rect x="40" y="144" width="216" height="40" rx="12" fill="rgba(255,255,255,0.12)"/>
  <text x="60" y="168" class="inverse" text-anchor="start">Structure</text>
  <rect x="40" y="196" width="216" height="40" rx="12" fill="rgba(255,255,255,0.04)"/>
  <text x="60" y="220" class="inverse" text-anchor="start">Entities</text>
  <rect x="40" y="248" width="216" height="40" rx="12" fill="rgba(255,255,255,0.04)"/>
  <text x="60" y="272" class="inverse" text-anchor="start">Departments</text>
  <rect x="40" y="300" width="216" height="40" rx="12" fill="rgba(255,255,255,0.04)"/>
  <text x="60" y="324" class="inverse" text-anchor="start">Workplaces</text>
  <rect x="40" y="352" width="216" height="40" rx="12" fill="rgba(255,255,255,0.04)"/>
  <text x="60" y="376" class="inverse" text-anchor="start">Navigation</text>
  <rect x="40" y="404" width="216" height="40" rx="12" fill="rgba(255,255,255,0.04)"/>
  <text x="60" y="428" class="inverse" text-anchor="start">Publish log</text>

  <rect x="296" y="24" width="1120" height="64" rx="20" fill="#FFFFFF" stroke="#D9E2EC" stroke-width="1" filter="url(#shadow)"/>
  <rect x="320" y="40" width="360" height="32" rx="16" fill="#F8FAFC" stroke="#D9E2EC" stroke-width="1"/>
  <text x="338" y="61" class="small" text-anchor="start">Search node, code, parent, workplace, geo path, or publish batch</text>
  <rect x="1060" y="40" width="92" height="28" rx="14" fill="#EAF2F8"/>
  <text x="1106" y="58" class="small" text-anchor="middle">Org admin</text>
  <rect x="1164" y="40" width="88" height="28" rx="14" fill="#FDEAD7"/>
  <text x="1208" y="58" class="small" text-anchor="middle">Alerts 09</text>
  <rect x="1264" y="40" width="96" height="28" rx="14" fill="#E3F2FD"/>
  <text x="1312" y="58" class="small" text-anchor="middle">Tasks 06</text>
  <rect x="1368" y="36" width="32" height="40" rx="16" fill="#DCE7F3"/>

  <text x="310" y="128" class="title" text-anchor="start">Organization Structure Workbench</text>
  <rect x="296" y="152" width="116" height="28" rx="14" fill="#DBEAFE"/>
  <text x="354" y="170" class="small" text-anchor="middle">Nodes 428</text>
  <circle cx="312" cy="166" r="14" fill="#2563EB" stroke="white" stroke-width="3"/>
  <text x="312" y="171" class="inverse" text-anchor="middle">1</text>
  <rect x="424" y="152" width="128" height="28" rx="14" fill="#FEF3C7"/>
  <text x="488" y="170" class="small" text-anchor="middle">Pending 16</text>
  <rect x="564" y="152" width="150" height="28" rx="14" fill="#FEE2E2"/>
  <text x="639" y="170" class="small" text-anchor="middle">Publish blocks 2</text>
  <rect x="808" y="146" width="150" height="40" rx="14" fill="#2563EB"/>
  <text x="883" y="172" class="inverse" text-anchor="middle">Create node</text>
  <circle cx="820" cy="146" r="14" fill="#2563EB" stroke="white" stroke-width="3"/>
  <text x="820" y="151" class="inverse" text-anchor="middle">2</text>
  <rect x="970" y="146" width="184" height="40" rx="14" fill="#0F766E"/>
  <text x="1062" y="172" class="inverse" text-anchor="middle">Review downstream impact</text>

  <rect x="296" y="206" width="862" height="76" rx="18" fill="#FFFFFF" stroke="#D9E2EC" stroke-width="1" filter="url(#shadow)"/>
  <rect x="320" y="226" width="520" height="36" rx="18" fill="#F8FAFC" stroke="#D9E2EC" stroke-width="1"/>
  <text x="338" y="249" class="body" text-anchor="start">Search ApexOne India, Digital Platforms, Shared Services, Bengaluru Campus, or org code</text>
  <rect x="856" y="226" width="82" height="28" rx="14" fill="#EAF2F8"/>
  <text x="897" y="244" class="small" text-anchor="middle">Hierarchy</text>
  <rect x="948" y="226" width="96" height="28" rx="14" fill="#EAF2F8"/>
  <text x="996" y="244" class="small" text-anchor="middle">Draft only</text>
  <rect x="1054" y="226" width="88" height="28" rx="14" fill="#10324A"/>
  <text x="1098" y="244" class="inverse" text-anchor="middle">Publish</text>
  <circle cx="320" cy="216" r="14" fill="#2563EB" stroke="white" stroke-width="3"/>
  <text x="320" y="221" class="inverse" text-anchor="middle">3</text>

  <rect x="296" y="302" width="198" height="92" rx="14" fill="#FFFFFF" stroke="#D9E2EC" stroke-width="1" filter="url(#shadow)"/>
  <rect x="308" y="314" width="44" height="44" rx="12" fill="#15803D"/>
  <text x="364" y="332" class="small" text-anchor="start">Legal entities</text>
  <text x="364" y="362" class="metric" text-anchor="start">06</text>
  <circle cx="320" cy="316" r="14" fill="#2563EB" stroke="white" stroke-width="3"/>
  <text x="320" y="321" class="inverse" text-anchor="middle">4</text>

  <rect x="518" y="302" width="198" height="92" rx="14" fill="#FFFFFF" stroke="#D9E2EC" stroke-width="1" filter="url(#shadow)"/>
  <rect x="530" y="314" width="44" height="44" rx="12" fill="#D97706"/>
  <text x="586" y="332" class="small" text-anchor="start">Business units</text>
  <text x="586" y="362" class="metric" text-anchor="start">18</text>

  <rect x="740" y="302" width="198" height="92" rx="14" fill="#FFFFFF" stroke="#D9E2EC" stroke-width="1" filter="url(#shadow)"/>
  <rect x="752" y="314" width="44" height="44" rx="12" fill="#B42318"/>
  <text x="808" y="332" class="small" text-anchor="start">Departments</text>
  <text x="808" y="362" class="metric" text-anchor="start">142</text>

  <rect x="962" y="302" width="198" height="92" rx="14" fill="#FFFFFF" stroke="#D9E2EC" stroke-width="1" filter="url(#shadow)"/>
  <rect x="974" y="314" width="44" height="44" rx="12" fill="#2563EB"/>
  <text x="1030" y="332" class="small" text-anchor="start">Workplaces</text>
  <text x="1030" y="362" class="metric" text-anchor="start">89</text>

  <rect x="1184" y="302" width="198" height="92" rx="14" fill="#FFFFFF" stroke="#D9E2EC" stroke-width="1" filter="url(#shadow)"/>
  <rect x="1196" y="314" width="44" height="44" rx="12" fill="#0F766E"/>
  <text x="1252" y="332" class="small" text-anchor="start">Publish sets</text>
  <text x="1252" y="362" class="metric" text-anchor="start">04</text>

  <rect x="296" y="422" width="332" height="270" rx="14" fill="#FFFFFF" stroke="#D9E2EC" stroke-width="1" filter="url(#shadow)"/>
  <text x="312" y="446" class="h3" text-anchor="start">Hierarchy explorer and change queue</text>
  <text x="312" y="464" class="small" text-anchor="start">Org admins browse legal entity, BU, department, and workplace branches together.</text>
  <circle cx="314" cy="480" r="3" fill="#2563EB"/>
  <text x="326" y="484" class="body" text-anchor="start">ApexOne Holdings contains 3 active group companies and 6 legal entities</text>
  <circle cx="314" cy="500" r="3" fill="#2563EB"/>
  <text x="326" y="504" class="body" text-anchor="start">Digital Platforms BU has 12 departments and 4 future-dated moves</text>
  <circle cx="314" cy="520" r="3" fill="#2563EB"/>
  <text x="326" y="524" class="body" text-anchor="start">2 departments still missing payroll area and cost-center mapping</text>
  <circle cx="314" cy="540" r="3" fill="#2563EB"/>
  <text x="326" y="544" class="body" text-anchor="start">Draft Bengaluru Campus branch is hidden from manager navigation until publish</text>
  <circle cx="314" cy="438" r="14" fill="#2563EB" stroke="white" stroke-width="3"/>
  <text x="314" y="443" class="inverse" text-anchor="middle">5</text>

  <rect x="648" y="422" width="510" height="270" rx="14" fill="#FFFFFF" stroke="#D9E2EC" stroke-width="1" filter="url(#shadow)"/>
  <text x="664" y="446" class="h3" text-anchor="start">Selected node workspace and admin controls</text>
  <text x="664" y="464" class="small" text-anchor="start">The chosen node shows effective dating, parentage, and safe navigation rules before save.</text>
  <rect x="666" y="470" width="474" height="86" rx="12" fill="#FBFDFF" stroke="#D9E2EC" stroke-width="1"/>
  <text x="684" y="496" class="small" text-anchor="start">Selected node</text>
  <text x="684" y="522" class="body" text-anchor="start">Department DEP-4412 Shared Services Payroll will move from Corporate Services to Digital Platforms on 01 Aug 2026 with 128 incumbents and 3 open requisitions affected.</text>
  <text x="684" y="544" class="small" text-anchor="start">Next step: confirm parent path, validate navigation scope, then publish with downstream alerts.</text>
  <rect x="666" y="574" width="136" height="40" rx="14" fill="#2563EB"/>
  <text x="734" y="600" class="inverse" text-anchor="middle">Edit node</text>
  <rect x="816" y="574" width="150" height="40" rx="14" fill="#EEF2FF"/>
  <text x="891" y="600" class="body" text-anchor="middle">Preview navigation</text>
  <rect x="980" y="574" width="134" height="40" rx="14" fill="#F8FAFC" stroke="#D9E2EC" stroke-width="1"/>
  <text x="1047" y="600" class="body" text-anchor="middle">View lineage</text>
  <circle cx="666" cy="438" r="14" fill="#2563EB" stroke="white" stroke-width="3"/>
  <text x="666" y="443" class="inverse" text-anchor="middle">6</text>

  <rect x="296" y="712" width="332" height="220" rx="14" fill="#FFFFFF" stroke="#D9E2EC" stroke-width="1" filter="url(#shadow)"/>
  <text x="312" y="736" class="h3" text-anchor="start">Geo and workplace structure</text>
  <text x="312" y="754" class="small" text-anchor="start">Location hierarchy and workplace readiness sit beside the org tree because both drive assignment rules.</text>
  <circle cx="314" cy="770" r="3" fill="#2563EB"/>
  <text x="326" y="774" class="body" text-anchor="start">India &gt; Karnataka &gt; Bengaluru Campus &gt; Tower 3 &gt; Floor 6 is active</text>
  <circle cx="314" cy="790" r="3" fill="#2563EB"/>
  <text x="326" y="794" class="body" text-anchor="start">Mumbai BKC office opens on 15 Sep 2026 with 5 draft departments</text>
  <circle cx="314" cy="810" r="3" fill="#2563EB"/>
  <text x="326" y="814" class="body" text-anchor="start">Hybrid workplace tag controls attendance zone and visitor routing</text>
  <circle cx="314" cy="830" r="3" fill="#2563EB"/>
  <text x="326" y="834" class="body" text-anchor="start">2 campuses need building-to-cost-center reconciliation before cutover</text>

  <rect x="648" y="712" width="510" height="220" rx="14" fill="#FFFFFF" stroke="#D9E2EC" stroke-width="1" filter="url(#shadow)"/>
  <text x="664" y="736" class="h3" text-anchor="start">Navigation governance and downstream impact</text>
  <text x="664" y="754" class="small" text-anchor="start">Admin-controlled navigation decides who can see draft or restricted branches across HRMS modules.</text>
  <circle cx="666" cy="770" r="3" fill="#2563EB"/>
  <text x="678" y="774" class="body" text-anchor="start">Manager self service excludes draft departments until publish is complete</text>
  <circle cx="666" cy="790" r="3" fill="#2563EB"/>
  <text x="678" y="794" class="body" text-anchor="start">Payroll, leave, and requisition flows inherit the new BU path after effective date</text>
  <circle cx="666" cy="810" r="3" fill="#2563EB"/>
  <text x="678" y="814" class="body" text-anchor="start">Restricted entities can be hidden from local admins by navigation pack</text>
  <circle cx="666" cy="830" r="3" fill="#2563EB"/>
  <text x="678" y="834" class="body" text-anchor="start">Audit log captures create, move, merge, retire, and publish actions by batch</text>
  <circle cx="666" cy="728" r="14" fill="#2563EB" stroke="white" stroke-width="3"/>
  <text x="666" y="733" class="inverse" text-anchor="middle">7</text>

  <rect x="296" y="952" width="862" height="98" rx="14" fill="#FFFFFF" stroke="#D9E2EC" stroke-width="1" filter="url(#shadow)"/>
  <text x="312" y="976" class="h3" text-anchor="start">Pinned org workbench lenses</text>
  <text x="312" y="994" class="small" text-anchor="start">Repeat admin tasks keep hierarchy, publish, workplace, and navigation views one click away.</text>
  <rect x="320" y="990" width="96" height="28" rx="14" fill="#DCFCE7"/>
  <text x="368" y="1008" class="small" text-anchor="middle">Entities</text>
  <rect x="428" y="990" width="118" height="28" rx="14" fill="#DBEAFE"/>
  <text x="487" y="1008" class="small" text-anchor="middle">Dept moves</text>
  <rect x="558" y="990" width="104" height="28" rx="14" fill="#FEF3C7"/>
  <text x="610" y="1008" class="small" text-anchor="middle">Workplaces</text>
  <rect x="674" y="990" width="124" height="28" rx="14" fill="#FEE2E2"/>
  <text x="736" y="1008" class="small" text-anchor="middle">Publish blocks</text>
  <rect x="810" y="990" width="114" height="28" rx="14" fill="#EDE9FE"/>
  <text x="867" y="1008" class="small" text-anchor="middle">Navigation</text>
  <rect x="936" y="990" width="96" height="28" rx="14" fill="#F8FAFC"/>
  <text x="984" y="1008" class="small" text-anchor="middle">Geo map</text>
  <circle cx="320" cy="966" r="14" fill="#2563EB" stroke="white" stroke-width="3"/>
  <text x="320" y="971" class="inverse" text-anchor="middle">8</text>

  <rect x="1178" y="152" width="238" height="898" rx="18" fill="#F8FBFF" stroke="#D9E2EC" stroke-width="1"/>
  <text x="1196" y="180" class="h2" text-anchor="start">Desktop annotations</text>
  <circle cx="1202" cy="204" r="12" fill="#2563EB"/>
  <text x="1202" y="208" class="inverse" text-anchor="middle">1</text>
  <text x="1224" y="206" class="annoTitle" text-anchor="start">Org-first signal strip</text>
  <text x="1224" y="224" class="annoText" text-anchor="start">The header surfaces total nodes, pending changes, and publish blockers before browsing.</text>

  <circle cx="1202" cy="256" r="12" fill="#2563EB"/>
  <text x="1202" y="260" class="inverse" text-anchor="middle">2</text>
  <text x="1224" y="258" class="annoTitle" text-anchor="start">Safe create flow</text>
  <text x="1224" y="276" class="annoText" text-anchor="start">Creating an entity or department stays close to impact review because hierarchy errors cascade widely.</text>

  <circle cx="1202" cy="308" r="12" fill="#2563EB"/>
  <text x="1202" y="312" class="inverse" text-anchor="middle">3</text>
  <text x="1224" y="310" class="annoTitle" text-anchor="start">Hierarchy search</text>
  <text x="1224" y="328" class="annoText" text-anchor="start">Admins can search by org code, place, or parent path instead of relying on manual tree expansion.</text>

  <circle cx="1202" cy="360" r="12" fill="#2563EB"/>
  <text x="1202" y="364" class="inverse" text-anchor="middle">4</text>
  <text x="1224" y="362" class="annoTitle" text-anchor="start">Shared KPI row</text>
  <text x="1224" y="380" class="annoText" text-anchor="start">Entities, BUs, departments, workplaces, and publish sets summarize implementation scope quickly.</text>

  <circle cx="1202" cy="412" r="12" fill="#2563EB"/>
  <text x="1202" y="416" class="inverse" text-anchor="middle">5</text>
  <text x="1224" y="414" class="annoTitle" text-anchor="start">Tree plus queue</text>
  <text x="1224" y="432" class="annoText" text-anchor="start">The hierarchy view doubles as a change queue so admins can resolve structure and migration tasks together.</text>

  <circle cx="1202" cy="464" r="12" fill="#2563EB"/>
  <text x="1202" y="468" class="inverse" text-anchor="middle">6</text>
  <text x="1224" y="466" class="annoTitle" text-anchor="start">Selected-node governance</text>
  <text x="1224" y="484" class="annoText" text-anchor="start">Effective date, parent path, and navigation visibility are reviewed before any structure save or publish.</text>

  <circle cx="1202" cy="516" r="12" fill="#2563EB"/>
  <text x="1202" y="520" class="inverse" text-anchor="middle">7</text>
  <text x="1224" y="518" class="annoTitle" text-anchor="start">Geo and nav linkage</text>
  <text x="1224" y="536" class="annoText" text-anchor="start">Workplace geography and admin-controlled navigation are treated as part of structure, not separate setup.</text>
  <circle cx="1202" cy="568" r="12" fill="#2563EB"/>
  <text x="1202" y="572" class="inverse" text-anchor="middle">8</text>
  <text x="1224" y="570" class="annoTitle" text-anchor="start">Mobile stays supervisory</text>
  <text x="1224" y="588" class="annoText" text-anchor="start">Small screens should support review, approval, and publish awareness while dense tree editing remains desktop-led.</text>
</svg>
